<!DOCTYPE svg PUBLIC "-//W3C//DTD SVG 20010904//EN" "http://www.w3.org/TR/2001/REC-SVG-20010904/DTD/svg10.dtd">
<svg version="1.0" xmlns="http://www.w3.org/2000/svg" width="1200px" height="675px" viewBox="0 0 12000 6750" preserveAspectRatio="xMidYMid meet">
<g id="layer101" fill="#000000" stroke="none">
<path d="M5905 4174 c-92 -23 -200 -80 -264 -140 -53 -49 -71 -77 -135 -213 -6 -13 -11 -74 -11 -135 0 -127 13 -173 77 -268 66 -99 81 -142 81 -238 -1 -96 -10 -124 -78 -230 -70 -107 -95 -183 -95 -288 0 -145 45 -248 151 -346 63 -59 115 -87 214 -117 156 -48 347 -1 474 117 106 98 151 201 151 346 0 105 -25 181 -95 288 -68 106 -77 134 -78 230 0 96 15 139 81 238 64 95 77 141 77 268 0 61 -5 122 -11 135 -6 13 -26 55 -45 92 -52 108 -143 182 -304 247 -32 13 -157 22 -190 14z"/>
</g>
<g id="layer102" fill="#4f4d47" stroke="none">
<path d="M5905 4174 c-92 -23 -200 -80 -264 -140 -53 -49 -71 -77 -135 -213 -6 -13 -11 -74 -11 -135 0 -127 13 -173 77 -268 66 -99 81 -142 81 -238 -1 -96 -10 -124 -78 -230 -70 -107 -95 -183 -95 -288 0 -145 45 -248 151 -346 63 -59 115 -87 214 -117 156 -48 347 -1 474 117 106 98 151 201 151 346 0 105 -25 181 -95 288 -68 106 -77 134 -78 230 0 96 15 139 81 238 64 95 77 141 77 268 0 61 -5 122 -11 135 -6 13 -26 55 -45 92 -52 108 -143 182 -304 247 -32 13 -157 22 -190 14z m-190 -818 c6 -5 1 -4 -10 2 -11 6 -33 25 -50 44 -33 36 -38 40 60 -46z m579 43 c-16 -17 -38 -35 -49 -41 -11 -6 0 8 25 30 53 49 65 54 24 11z"/>
</g>
<g id="layer103" fill="#1bc274" stroke="none">
<path d="M5786 3068 c-98 -48 -176 -126 -220 -217 -29 -62 -31 -73 -31 -181 0 -106 3 -119 29 -175 72 -146 227 -235 411 -235 184 0 339 89 411 235 26 56 29 69 29 175 0 108 -2 119 -31 181 -44 92 -122 168 -221 217 -78 38 -82 39 -189 39 -106 0 -111 -1 -188 -39z"/>
</g>
<g id="layer104" fill="#dc4540" stroke="none">
<path d="M5866 4114 c-125 -30 -231 -116 -289 -234 -30 -61 -32 -70 -32 -180 0 -106 2 -119 29 -173 68 -140 225 -246 376 -255 131 -8 241 37 341 139 31 31 70 83 85 116 27 54 29 67 29 173 0 110 -2 119 -32 180 -94 190 -299 284 -507 234z"/>
</g>
<g id="layer105" fill="#898988" stroke="none">
<path d="M5875 3921 c-153 -70 -186 -256 -65 -365 55 -50 97 -66 167 -66 203 1 313 235 176 374 -52 53 -105 76 -178 76 -37 0 -75 -7 -100 -19z m175 -83 c98 -67 104 -176 14 -244 -30 -23 -48 -29 -89 -29 -120 0 -195 133 -127 225 32 43 81 70 127 70 27 0 54 -8 75 -22z"/>
<path d="M5737 3263 c5 -16 7 -61 7 -100 -1 -40 -1 -73 1 -73 1 0 30 12 66 27 55 23 78 27 164 27 99 0 106 -2 218 -49 17 -7 18 -4 12 46 -3 30 -2 74 4 99 5 24 8 46 6 48 -2 2 -35 -8 -75 -22 -100 -36 -229 -37 -328 -1 -38 14 -72 25 -76 25 -3 0 -3 -12 1 -27z"/>
</g>
<g id="layer106" fill="#f7f8f5" stroke="none">
<path d="M5875 3921 c-153 -70 -186 -256 -65 -365 55 -50 97 -66 167 -66 203 1 313 235 176 374 -52 53 -105 76 -178 76 -37 0 -75 -7 -100 -19z m175 -83 c54 -37 75 -73 75 -128 0 -85 -62 -145 -150 -145 -88 0 -150 60 -150 145 0 81 69 150 150 150 27 0 54 -8 75 -22z"/>
<path d="M5938 2880 c-16 -10 -18 -31 -18 -205 0 -195 0 -195 55 -195 53 0 55 1 55 28 3 143 -2 358 -8 364 -14 14 -67 18 -84 8z"/>
</g>


</svg>